<?xml version="1.0" standalone="no"?>
<!DOCTYPE svg PUBLIC "-//W3C//DTD SVG 20010904//EN"
 "http://www.w3.org/TR/2001/REC-SVG-20010904/DTD/svg10.dtd">
<svg version="1.0" xmlns="http://www.w3.org/2000/svg"
 width="1920.000000pt" height="1278.000000pt" viewBox="0 0 1920.000000 1278.000000"
 preserveAspectRatio="xMidYMid meet">

<g transform="translate(0.000000,1278.000000) scale(0.100000,-0.100000)"
fill="#2F74DF" stroke="none">
<path d="M13220 9669 c-2516 -1710 -4580 -3113 -4587 -3117 -8 -5 174 -589
623 -2001 349 -1097 633 -1996 631 -1998 -3 -2 -762 529 -1688 1181 l-1684
1184 -35 -26 c-189 -142 -6359 -4868 -6370 -4878 -12 -12 41 -14 376 -14 l391
0 2793 1916 2793 1915 46 -33 c25 -18 1213 -877 2638 -1910 1426 -1032 2597
-1879 2603 -1883 6 -4 6 4 0 22 -5 15 -455 1382 -1000 3037 -808 2453 -989
3011 -978 3021 7 7 1928 1505 4268 3330 2340 1825 4268 3329 4283 3342 l29 23
-279 0 -278 -1 -4575 -3110z"/>
</g>
</svg>
