<svg width="290" height="116" viewBox="0 0 290 116" fill="none" xmlns="http://www.w3.org/2000/svg"><path d="M97.186 89.818h.338c.61 0 1.15.48 1.15 1.168v.687c0 .481-.203.825-.473 1.1l-4.196 3.848c-1.218 1.168-1.828 2.611-1.828 4.261v4.191h10.355V101.5h-6.497v-.344c0-.618.27-1.237.745-1.649l3.992-3.917c1.151-1.1 1.76-2.474 1.76-4.123v-.894c0-2.405-1.895-4.329-4.264-4.329h-1.624c-2.3 0-4.264 1.924-4.264 4.33v1.786h3.655v-1.374a1.15 1.15 0 011.15-1.168z" fill="#0650BF"/><path fill-rule="evenodd" clip-rule="evenodd" d="M110.586 86.244h1.895c2.301 0 4.196 1.924 4.196 4.33v10.17c0 2.405-1.895 4.329-4.196 4.329h-1.895c-2.301 0-4.196-1.924-4.196-4.329v-10.17c0-2.406 1.895-4.33 4.196-4.33zm.744 3.573h.339c.676 0 1.15.482 1.15 1.169v9.414c0 .619-.474 1.1-1.15 1.1h-.339a1.078 1.078 0 01-1.083-1.1v-9.414c0-.687.474-1.169 1.083-1.169z" fill="#0650BF"/><path d="M139.687 89.817h.339c.609 0 1.15.482 1.15 1.169v.687c0 .481-.135.825-.474 1.1l-4.128 3.848c-1.218 1.168-1.827 2.611-1.827 4.261v4.191h10.287V101.5h-6.43v-.344c0-.618.203-1.237.677-1.649l3.993-3.917c1.151-1.1 1.76-2.474 1.76-4.123v-.894c0-2.405-1.895-4.329-4.196-4.329h-1.692c-2.301 0-4.196 1.924-4.196 4.33v1.786h3.654v-1.374c0-.687.474-1.169 1.083-1.169z" fill="#0650BF"/><path fill-rule="evenodd" clip-rule="evenodd" d="M126.625 86.244h-1.827c-2.369 0-4.264 1.924-4.264 4.33v10.17c0 2.405 1.895 4.329 4.264 4.329h1.827c2.369 0 4.264-1.924 4.264-4.329v-10.17c0-2.406-1.895-4.33-4.264-4.33zm-.744 3.573h-.338a1.15 1.15 0 00-1.151 1.169v9.414c0 .619.542 1.1 1.151 1.1h.338c.609 0 1.151-.481 1.151-1.1v-9.414a1.15 1.15 0 00-1.151-1.169zM92.177 36.422v9.002h22.266c-.473-5.085-4.669-9.002-9.745-9.002h-12.52zm0 23.57V79.51h14.01c5.414 0 9.813-4.467 9.813-9.896v-5.017c0-3.161-1.489-5.978-3.79-7.834 1.421-1.718 2.233-3.917 2.233-6.322v-4.467L92.177 59.993zm12.318 10.515h-3.452v-8.865h3.452c1.421 0 2.639 1.237 2.639 2.68v3.574c0 1.443-1.218 2.611-2.639 2.611zm146.658-34.085h-4.264c-5.346 0-9.745 4.467-9.745 9.896v23.296c0 5.429 4.399 9.895 9.745 9.895h4.264c5.346 0 9.746-4.466 9.746-9.895V46.317c0-5.428-4.4-9.895-9.746-9.895zm-2.572 9.002h.88c1.421 0 2.572 1.168 2.572 2.612v19.86c0 1.443-1.151 2.611-2.572 2.611h-.88c-1.421 0-2.572-1.168-2.572-2.611v-19.86c0-1.444 1.151-2.612 2.572-2.612zm-31.267-9.002h-8.866V79.51h8.866V61.092h.135l7.106 18.418h9.881l-9.204-23.64 8.325-19.448h-9.475l-6.633 18.417h-.135V36.422zm-14.145 0h-8.866v16.974h-6.091V36.422h-8.865V79.51h8.865V61.642h6.091V79.51h8.866V36.422zm-29.101 0h-23.755V79.51h23.755l-.948-9.003h-13.941v-8.865h10.76l.948-8.246h-11.708v-7.972h13.941l.948-9.002zm106.119 0h-14.01V79.51h8.866V65.147h5.144c5.414 0 9.813-4.467 9.813-9.965v-8.864c0-5.43-4.399-9.896-9.813-9.896zm-1.692 19.723h-3.452v-10.72h3.452c1.421 0 2.639 1.167 2.639 2.61v5.43c0 1.443-1.218 2.68-2.639 2.68zM135.221 36.422h-4.197c-5.346 0-9.745 4.467-9.745 9.896v23.296c0 5.429 4.399 9.895 9.745 9.895h4.197c5.414 0 9.813-4.466 9.813-9.895V46.317c0-5.428-4.399-9.895-9.813-9.895zm-2.505 9.002h.88c1.421 0 2.572 1.168 2.572 2.612v19.86c0 1.443-1.151 2.611-2.572 2.611h-.88c-1.421 0-2.571-1.168-2.571-2.611v-19.86c0-1.444 1.15-2.612 2.571-2.612zm-53.939 63.154V116L52.924 91.123l-22.266 13.95H20.574L53.67 84.32l25.108 24.258zm0-99.163l-24.973 36.01H13.333l24.296 23.433-25.109 36.215H6.023L30.59 69.545 0 39.995h51.097L78.777 0v9.415z" fill="#0650BF"/><path fill-rule="evenodd" clip-rule="evenodd" d="M78.912 13.607L55.09 47.898H19.559l21.318 20.616-25.311 36.559 38.306-24.052 24.905 24.052.068-39.72 27.815-17.455H78.912V13.607z" fill="#E31E24"/><path fill-rule="evenodd" clip-rule="evenodd" d="M24.77 52.983L71.4 97.995V70.026l27.207-17.043H24.77z" fill="#C40B11"/></svg>