<?xml version="1.0" standalone="no"?>
<!DOCTYPE svg PUBLIC "-//W3C//DTD SVG 20010904//EN"
 "http://www.w3.org/TR/2001/REC-SVG-20010904/DTD/svg10.dtd">
<svg version="1.0" xmlns="http://www.w3.org/2000/svg"
 width="1201.000000pt" height="1201.000000pt" viewBox="0 0 1201.000000 1201.000000"
 preserveAspectRatio="xMidYMid meet">
<metadata>
Created by potrace 1.14, written by Peter Selinger 2001-2017
</metadata>
<g transform="translate(0.000000,1201.000000) scale(0.100000,-0.100000)"
fill="#000000" stroke="none">
<path d="M6053 11877 c-37 -107 -328 -965 -402 -1182 -15 -44 -60 -174 -99
-290 -39 -115 -134 -397 -212 -625 -78 -228 -150 -440 -160 -470 -10 -30 -63
-188 -118 -350 -56 -162 -168 -493 -250 -735 -209 -614 -261 -765 -266 -774
-3 -5 -400 -6 -883 -4 -483 2 -1245 5 -1693 6 l-815 2 0 -510 0 -510 170 -112
c227 -148 562 -368 655 -428 41 -27 185 -121 320 -210 135 -88 290 -190 345
-225 55 -36 182 -119 282 -185 172 -113 319 -209 746 -489 138 -91 177 -120
173 -134 -3 -9 -17 -73 -31 -142 -14 -69 -28 -134 -31 -145 -2 -11 -7 -33 -10
-50 -3 -16 -14 -68 -24 -115 -10 -47 -32 -150 -49 -230 -16 -80 -44 -210 -61
-289 -16 -80 -32 -154 -34 -165 -3 -12 -29 -139 -60 -284 -31 -145 -58 -273
-60 -285 -3 -12 -14 -62 -25 -112 -11 -49 -22 -103 -25 -120 -3 -16 -8 -41
-11 -55 -3 -14 -7 -36 -10 -50 -3 -14 -9 -40 -14 -57 -5 -18 -8 -33 -5 -33 5
0 9 9 79 190 79 207 251 649 312 805 78 201 97 250 133 345 17 47 38 99 45
115 7 17 50 127 95 245 44 118 90 235 100 260 40 96 121 313 118 315 -14 10
-268 211 -283 224 -23 19 -352 278 -459 362 -39 30 -226 178 -416 328 -190
150 -358 283 -375 296 -16 13 -111 88 -211 167 -99 79 -196 155 -215 170 -211
166 -318 251 -335 265 -12 10 -56 45 -98 77 -42 32 -74 61 -71 64 3 3 141 7
308 8 707 5 2358 16 2665 17 l332 2 116 355 c63 195 128 396 144 445 16 50 45
137 64 195 73 225 435 1343 523 1615 30 94 57 177 60 185 3 8 7 20 9 25 1 6
14 48 29 95 l28 85 19 -45 c11 -25 51 -126 89 -225 39 -99 74 -189 79 -200 11
-25 34 -82 104 -260 30 -77 97 -248 149 -380 52 -132 142 -359 200 -505 57
-146 165 -420 240 -610 75 -190 160 -406 189 -480 l53 -135 55 1 c49 1 141 8
250 19 44 4 146 14 225 20 62 5 124 11 210 20 28 2 79 7 115 10 173 14 197 16
217 20 12 2 66 6 120 10 54 4 109 8 123 10 14 2 57 7 95 10 110 9 209 18 330
30 22 2 76 7 120 11 44 3 91 7 105 9 14 2 45 4 69 4 78 2 47 10 -99 26 -69 8
-114 13 -165 19 -22 3 -65 8 -95 11 -30 4 -66 8 -80 10 -14 2 -52 6 -85 10
-56 5 -107 11 -180 20 -16 2 -57 7 -90 10 -33 3 -71 8 -85 10 -14 2 -52 7 -85
10 -33 4 -116 13 -185 21 -122 14 -142 16 -245 29 -27 3 -68 8 -90 10 -22 2
-58 6 -80 9 -22 2 -67 8 -100 11 -89 10 -108 13 -115 22 -4 4 -26 73 -49 153
-23 80 -65 222 -93 315 -27 94 -58 199 -68 235 -10 36 -32 110 -48 165 -30 99
-199 676 -207 705 -2 8 -18 60 -35 115 -16 55 -32 109 -35 120 -2 11 -25 90
-51 175 -25 85 -56 191 -69 235 -13 44 -55 190 -95 325 -119 403 -177 604
-183 625 -3 11 -21 72 -40 135 -19 63 -40 131 -45 150 -26 91 -134 460 -172
585 -22 77 -47 160 -54 185 -62 215 -127 434 -129 437 -2 1 -22 -53 -44 -120z"/>
<path d="M10640 6987 c-392 -265 -699 -473 -860 -582 -91 -61 -284 -192 -430
-290 -334 -226 -521 -352 -791 -534 -118 -80 -248 -168 -289 -196 -41 -28
-187 -127 -325 -220 -137 -92 -253 -171 -258 -175 -4 -3 47 -177 114 -386 66
-208 152 -478 191 -599 103 -327 193 -608 323 -1015 64 -201 127 -399 140
-440 13 -41 42 -132 64 -203 94 -294 121 -381 118 -383 -1 -2 -28 16 -59 39
-45 33 -486 344 -591 417 -12 8 -114 80 -227 159 -113 79 -234 165 -270 190
-155 108 -547 384 -565 397 -20 15 -196 139 -600 422 -121 85 -225 157 -232
159 -10 4 -820 -606 -983 -740 -8 -7 -31 -23 -50 -37 -19 -13 -37 -27 -40 -30
-3 -3 -43 -34 -90 -70 -47 -35 -89 -68 -95 -73 -5 -4 -197 -151 -425 -325
-524 -401 -1276 -977 -1315 -1007 -43 -34 -386 -295 -425 -325 -19 -14 -45
-34 -59 -46 -14 -11 -152 -117 -306 -234 -154 -118 -282 -217 -285 -220 -3 -3
-21 -17 -40 -30 -19 -13 -37 -27 -40 -30 -3 -3 -21 -17 -40 -30 -19 -14 -44
-32 -55 -42 -20 -16 -310 -239 -375 -288 -19 -14 -57 -43 -85 -65 -27 -22 -74
-58 -102 -79 -29 -21 -53 -40 -53 -42 0 -3 3 -3 7 -1 61 37 432 260 443 267 8
5 87 52 175 105 189 113 1133 681 1155 694 8 5 74 44 145 87 72 43 137 83 145
90 8 6 35 23 60 36 59 33 528 315 560 337 14 10 45 28 70 42 25 13 47 26 50
29 4 4 848 512 922 555 17 9 1048 632 1074 647 7 5 118 -69 280 -187 148 -107
274 -198 279 -202 14 -12 253 -185 305 -221 14 -9 72 -52 130 -94 99 -73 614
-446 660 -478 12 -8 61 -43 108 -78 48 -35 98 -71 111 -80 13 -9 35 -26 50
-37 14 -12 67 -49 116 -84 50 -35 113 -81 140 -101 28 -21 208 -151 400 -290
193 -139 370 -268 395 -286 25 -18 248 -180 495 -358 248 -179 472 -341 498
-361 26 -21 50 -36 52 -33 2 2 -11 48 -30 103 -44 134 -472 1432 -597 1815
-55 168 -103 314 -108 325 -5 11 -43 126 -85 255 -75 231 -162 496 -509 1548
-97 293 -176 538 -176 545 1 13 10 24 295 332 26 27 189 204 235 255 8 9 42
45 75 81 33 35 107 116 165 179 58 63 132 144 166 180 33 36 85 92 115 124 29
33 61 67 69 76 8 9 62 68 120 130 58 63 130 142 162 175 31 33 67 72 80 86 13
14 66 72 118 129 52 57 106 115 118 129 13 14 67 73 120 130 54 57 104 112
112 121 8 10 62 68 120 130 58 62 110 118 115 125 6 6 32 35 60 63 27 29 47
52 45 51 -3 0 -93 -59 -200 -132z"/>
</g>
</svg>
